<?xml version="1.0" encoding="UTF-8"?>
<svg xmlns="http://www.w3.org/2000/svg" viewBox="0 0 241.25 49.18">
  <defs>
    <style>
      .cls-1 {
        fill: #fff;
      }
    </style>
  </defs>
  <g id="file-5_图像" data-name="file-5 图像">
    <path class="cls-1" d="M36.92,34.89c-.74.57-1.56.83-2.47.49-.48-.17-.79-.05-1.13.29-1.75,1.78-3.51,3.54-5.28,5.3-.27.27-.24.43.02.67.86.84,1.71,1.69,2.55,2.55.25.26.45.25.71.03,1.44-1.22,2.8-2.51,3.99-3.97,2.47-3.02,4.24-6.43,5.52-10.1,1.42-4.07,2.13-8.27,2.44-12.54,0-.11.04-.24-.1-.32-.18,0-.28.15-.39.26-1.64,1.63-3.29,3.27-4.93,4.91-.23.23-.44.47-.39.84.13,1.06-.79,2.12-1.88,2.08-.47-.02-.8.13-1.12.45-5.2,5.22-10.41,10.42-15.62,15.63-.2.2-.3.5-.56.64-.21-.09-.34-.26-.49-.4-1.3-1.3-2.59-2.6-3.88-3.9q-.42-.42,0-.85c1.45-1.45,2.9-2.91,4.36-4.35.3-.3.44-.62.44-1.05-.02-1.14,0-2.29,0-3.43,0-.25-.02-.5-.3-.57-.43-.1-.84-.58-1.34.41-.74,1.45-1.91,2.62-3.35,3.37-.63.33-.82.73-.73,1.25.23,1.42-1.11,2.54-2.48,2.09-.9-.3-1.45-1.23-1.29-2.19.16-.96.96-1.57,2.01-1.52.31.02.57-.02.8-.25,1.4-1.4,2.8-2.8,4.2-4.2.25-.25.33-.5.24-.87-.46-1.96,1.29-3.72,3.2-3.23,1.07.27,1.75.96,1.98,2.02.23,1.05-.06,1.99-.94,2.66-.33.25-.45.53-.45.93.02,1.33,0,2.67,0,4.01,0,.55-.17.98-.57,1.37-1.23,1.2-2.43,2.43-3.65,3.64-.26.26-.25.42.11.71.59.48,1.12,1.01,1.61,1.6.36.43.56.49.9.14,4.92-4.93,9.85-9.86,14.78-14.78.24-.24.33-.46.26-.82-.26-1.34.91-2.53,2.25-2.27.31.06.55.02.78-.21,2.1-2.11,4.21-4.22,6.32-6.32.22-.22.33-.47.31-.79-.06-1.27-.12-2.55-.16-3.82-.01-.35-.2-.49-.51-.55-.46-.08-.93-.14-1.38-.26-.47-.12-.8,0-1.14.34-1.37,1.39-2.75,2.77-4.13,4.15-2.26,2.26-4.52,4.52-6.8,6.77-.28.28-.39.52-.22.92.22.51.21,1.07.07,1.6-.4,1.47-1.86,2.27-3.34,1.86-1.34-.37-2.17-1.84-1.82-3.23.36-1.43,1.76-2.28,3.22-1.91.38.1.64.02.9-.25,3.45-3.46,6.91-6.91,10.36-10.37.37-.37.34-.46-.17-.63-1.28-.43-2.57-.83-3.85-1.28-.42-.15-.88-.04-1.19.27-3.58,3.62-7.19,7.21-10.78,10.82-.32.32-.67.47-1.15.44-1.36-.08-2.72-.09-4.08,0-.63.04-1.07-.13-1.49-.56-1.43-1.47-2.89-2.92-4.33-4.38-.23-.23-.46-.37-.81-.32-1.4.22-2.39-.72-2.25-2.11.03-.32.07-.64-.28-.88-.69-.48-1.33-1.05-1.77-1.77-.2-.32-.47-.42-.78-.35-1.61.36-3.23.74-4.84,1.09-.34.08-.52.27-.51.61,0,.72,0,1.44-.1,2.15-.11.8.21,1.36.78,1.92,2.99,2.94,5.95,5.92,8.91,8.89.45.45.42.42.92-.01.39-.34.53-.87.38-1.37-.12-.4-.1-.85,0-1.27.34-1.32,1.76-2.15,3.12-1.83,1.43.34,2.35,1.74,2.04,3.12-.35,1.58-1.81,2.47-3.37,2.03-.43-.12-.71-.04-1,.3-.27.32-.56.63-.87.92-.9.84-.76.98-1.29.45-3.05-3.05-6.1-6.1-9.15-9.15-.11-.11-.19-.27-.37-.26-.12.11-.11.25-.09.38.2,2.04.34,4.08.67,6.1.68,4.1,1.85,8.04,3.72,11.76,1.47,2.92,3.32,5.57,5.66,7.85,3.14,3.06,6.84,5.21,10.99,6.61.36.12.7.15,1.07.03,2.46-.79,4.78-1.87,6.93-3.29.15-.1.34-.18.4-.44-1.37-1.31-2.76-2.63-4.11-4.03.24-.21.45-.39.65-.58,2.09-2.08,4.17-4.17,6.27-6.24.34-.34.44-.65.31-1.13-.25-.94.03-1.77.72-2.45.72-.7,1.59-.96,2.55-.68,2.1.61,2.66,3.05,1.04,4.61M22.43,16.43c3.21-3.21,6.46-6.39,9.7-9.69-.28-.14-.43-.23-.59-.3-3.33-1.5-6.45-3.35-9.34-5.59-.51-.39-.52-.39-1.05.02-2.64,2.05-5.5,3.75-8.5,5.2-.58.28-.6.36-.13.82,2,2,4.01,4,6,6.01.32.32.5.25.84-.15.82-.94,1.71-1.81,2.65-2.62.55-.47.73-.84.5-1.52-.61-1.79.94-3.71,2.97-3.36,1.5.25,2.45,1.62,2.18,3.14-.26,1.43-1.66,2.39-3.12,2.09-.43-.09-.72.03-1.01.33-1.38,1.4-2.77,2.79-4.16,4.18q-.57.57-1.12.02c-1.2-1.21-2.4-2.41-3.61-3.61-1.3-1.3-2.6-2.59-3.89-3.89-.27-.27-.52-.36-.9-.2-.55.24-1.12.43-1.68.65-.45.18-.48.32-.15.66.38.4.79.78,1.17,1.19.2.21.48.33.76.32,1.38-.03,2.14.74,2.14,2.12,0,.42.14.72.62,1,1.44.85,2.62,2.06,3.49,3.48.36.59.8.94,1.39.87.75-.08,1.5-.11,2.24-.03,1.08.11,1.92-.21,2.6-1.13M36.22,33.28c.21-.7-.05-1.3-.66-1.5-.56-.19-1.22.15-1.41.73-.17.52.08,1.08.58,1.33.54.27,1.07.09,1.49-.56M18.93,26.1c.52.06.86-.21,1.11-.63.23-.38.2-.76-.06-1.11-.26-.36-.62-.52-1.07-.46-.49.07-.88.49-.92.98-.05.59.23.97.94,1.21M25.78,7.11c-.44-.34-.89-.4-1.3-.16-.4.24-.63.69-.55,1.11.09.49.44.85.92.95.37.08.85-.15,1.09-.51.27-.4.23-.83-.17-1.39M14.66,21.55c-.03-.13-.03-.26-.08-.38-.18-.41-.49-.65-.94-.68-.48-.04-.8.2-1.04.6-.23.39-.21.76.05,1.11.25.34.61.56,1.06.49.53-.09.85-.46.95-1.13M25.5,23.13c.04.08.07.16.12.23.37.53,1.06.64,1.57.26.48-.36.58-1.05.22-1.52-.39-.53-1.05-.6-1.57-.18-.38.3-.42.71-.35,1.22Z"/>
  </g>
  <g id="DeepSafe">
    <g>
      <path class="cls-1" d="M59.79,36.55V6.45h10.06c3.47,0,6.35.62,8.64,1.87s3.99,3,5.1,5.25c1.1,2.25,1.66,4.9,1.66,7.93s-.55,5.68-1.66,7.93c-1.1,2.25-2.8,4-5.1,5.25s-5.17,1.87-8.64,1.87h-10.06ZM65.6,31.56h3.96c2.44,0,4.37-.4,5.81-1.2,1.43-.8,2.45-1.96,3.05-3.46s.9-3.3.9-5.4-.3-3.93-.9-5.44c-.6-1.51-1.62-2.66-3.05-3.46-1.43-.8-3.37-1.2-5.81-1.2h-3.96v20.17Z"/>
      <path class="cls-1" d="M97.89,37.07c-2.18,0-4.11-.47-5.78-1.42-1.68-.95-2.98-2.26-3.91-3.93-.93-1.68-1.4-3.6-1.4-5.78s.47-4.26,1.4-5.98c.93-1.72,2.23-3.08,3.89-4.08,1.66-1,3.6-1.5,5.81-1.5s4.03.47,5.63,1.42c1.6.95,2.85,2.21,3.74,3.81.89,1.59,1.33,3.42,1.33,5.48,0,.29,0,.61-.02.97-.02.36-.04.72-.06,1.1h-17.54v-3.57h11.78c-.09-1.35-.58-2.44-1.48-3.27-.9-.83-2.01-1.25-3.33-1.25-1,0-1.91.24-2.73.71-.82.47-1.47,1.16-1.96,2.06-.49.9-.73,2.04-.73,3.42v1.25c0,1.18.22,2.2.67,3.07.44.88,1.07,1.56,1.87,2.04.8.49,1.73.73,2.8.73s1.97-.22,2.64-.67c.67-.44,1.2-1.04,1.57-1.78h5.89c-.37,1.35-1.04,2.57-2,3.68-.96,1.1-2.12,1.96-3.48,2.58-1.36.62-2.89.92-4.58.92Z"/>
      <path class="cls-1" d="M121.2,37.07c-2.18,0-4.11-.47-5.78-1.42-1.68-.95-2.98-2.26-3.91-3.93-.93-1.68-1.4-3.6-1.4-5.78s.47-4.26,1.4-5.98c.93-1.72,2.23-3.08,3.89-4.08,1.66-1,3.6-1.5,5.81-1.5s4.03.47,5.63,1.42c1.6.95,2.85,2.21,3.74,3.81.89,1.59,1.33,3.42,1.33,5.48,0,.29,0,.61-.02.97-.02.36-.04.72-.06,1.1h-17.54v-3.57h11.78c-.09-1.35-.58-2.44-1.48-3.27-.9-.83-2.01-1.25-3.33-1.25-1,0-1.91.24-2.73.71-.82.47-1.47,1.16-1.96,2.06-.49.9-.73,2.04-.73,3.42v1.25c0,1.18.22,2.2.67,3.07.44.88,1.07,1.56,1.87,2.04.8.49,1.73.73,2.8.73s1.97-.22,2.64-.67c.67-.44,1.2-1.04,1.57-1.78h5.89c-.37,1.35-1.04,2.57-2,3.68-.96,1.1-2.12,1.96-3.48,2.58-1.36.62-2.89.92-4.58.92Z"/>
      <path class="cls-1" d="M134.1,46.01V14.88h5.16l.65,2.97c.43-.6.97-1.17,1.61-1.7.65-.53,1.4-.96,2.28-1.29.87-.33,1.88-.49,3.03-.49,2.06,0,3.87.49,5.42,1.48,1.55.99,2.77,2.34,3.68,4.06.9,1.72,1.35,3.67,1.35,5.85s-.46,4.12-1.38,5.83c-.92,1.71-2.15,3.05-3.7,4.02-1.55.97-3.33,1.46-5.33,1.46-1.58,0-2.95-.29-4.11-.88-1.16-.59-2.11-1.4-2.86-2.43v12.25h-5.81ZM145.53,31.99c1.12,0,2.11-.26,2.99-.77.87-.52,1.56-1.24,2.06-2.17.5-.93.75-2.01.75-3.25s-.25-2.37-.75-3.33c-.5-.96-1.19-1.71-2.06-2.24-.88-.53-1.87-.8-2.99-.8s-2.11.27-2.99.8c-.88.53-1.56,1.27-2.04,2.21-.49.95-.73,2.05-.73,3.31s.24,2.32.73,3.25c.49.93,1.17,1.66,2.04,2.19.87.53,1.87.8,2.99.8Z"/>
      <path class="cls-1" d="M170.17,37.07c-2.18,0-4.12-.37-5.83-1.12-1.71-.75-3.05-1.83-4.02-3.27-.97-1.43-1.49-3.17-1.55-5.2h6.15c.03.89.26,1.69.69,2.41.43.72,1.02,1.28,1.78,1.7.76.42,1.67.62,2.73.62.92,0,1.71-.15,2.39-.45.67-.3,1.2-.72,1.59-1.27.39-.54.58-1.19.58-1.93,0-.86-.22-1.58-.65-2.15-.43-.57-1.01-1.06-1.74-1.46-.73-.4-1.58-.77-2.54-1.1-.96-.33-1.96-.67-2.99-1.01-2.41-.8-4.23-1.85-5.46-3.14-1.23-1.29-1.85-3-1.85-5.12,0-1.81.43-3.35,1.29-4.64s2.06-2.28,3.61-2.97c1.55-.69,3.31-1.03,5.29-1.03s3.82.35,5.35,1.05c1.53.7,2.75,1.71,3.65,3.03.9,1.32,1.38,2.87,1.44,4.64h-6.23c-.03-.66-.22-1.28-.58-1.87-.36-.59-.85-1.06-1.48-1.42-.63-.36-1.38-.54-2.24-.54-.75-.03-1.43.09-2.04.34-.62.26-1.1.64-1.44,1.14-.34.5-.52,1.13-.52,1.87s.17,1.32.52,1.81c.34.49.83.91,1.46,1.27.63.36,1.38.69,2.24.99.86.3,1.79.61,2.79.92,1.52.52,2.9,1.13,4.15,1.83,1.25.7,2.24,1.61,2.99,2.73.75,1.12,1.12,2.6,1.12,4.43,0,1.58-.41,3.04-1.23,4.39-.82,1.35-2.01,2.44-3.59,3.27-1.58.83-3.53,1.25-5.85,1.25Z"/>
      <path class="cls-1" d="M190.38,37.07c-1.78,0-3.25-.29-4.43-.88-1.18-.59-2.06-1.38-2.64-2.37s-.88-2.09-.88-3.29c0-1.35.34-2.52,1.01-3.53.67-1,1.7-1.78,3.08-2.34,1.38-.56,3.12-.84,5.25-.84h5.29c0-1.09-.14-1.98-.41-2.67s-.72-1.2-1.33-1.55c-.62-.34-1.43-.52-2.43-.52-1.09,0-2.01.23-2.77.69-.76.46-1.23,1.19-1.4,2.19h-5.63c.14-1.58.65-2.92,1.53-4.04.87-1.12,2.04-1.99,3.48-2.62,1.45-.63,3.06-.95,4.84-.95,2.04,0,3.81.34,5.31,1.01,1.51.67,2.65,1.66,3.44,2.97.79,1.3,1.18,2.89,1.18,4.75v13.46h-4.86l-.64-3.31c-.32.57-.7,1.09-1.14,1.55-.45.46-.96.86-1.55,1.2-.59.34-1.23.61-1.91.79-.69.19-1.48.28-2.36.28ZM191.8,32.59c.72,0,1.37-.14,1.96-.41.59-.27,1.1-.65,1.53-1.14.43-.49.77-1.03,1.03-1.63.26-.6.43-1.26.52-1.98v-.04h-4.43c-.92,0-1.66.11-2.21.32-.56.22-.97.52-1.23.92-.26.4-.39.86-.39,1.38,0,.54.13,1.01.39,1.4.26.39.64.68,1.14.88.5.2,1.07.3,1.7.3Z"/>
      <path class="cls-1" d="M203.71,19.74v-4.86h13.46v4.86h-13.46ZM206.68,36.55V12.94c0-1.81.3-3.24.9-4.3.6-1.06,1.47-1.83,2.6-2.32,1.13-.49,2.46-.73,3.98-.73h2.67v4.94h-1.76c-.92,0-1.58.18-1.98.54-.4.36-.6.97-.6,1.83v23.65h-5.8Z"/>
      <path class="cls-1" d="M228.61,37.07c-2.18,0-4.11-.47-5.78-1.42-1.68-.95-2.98-2.26-3.91-3.93-.93-1.68-1.4-3.6-1.4-5.78s.46-4.26,1.4-5.98c.93-1.72,2.23-3.08,3.89-4.08,1.66-1,3.6-1.5,5.8-1.5s4.03.47,5.63,1.42,2.85,2.21,3.74,3.81c.89,1.59,1.33,3.42,1.33,5.48,0,.29,0,.61-.02.97-.01.36-.04.72-.06,1.1h-17.54v-3.57h11.78c-.09-1.35-.58-2.44-1.48-3.27-.9-.83-2.01-1.25-3.33-1.25-1,0-1.91.24-2.73.71-.82.47-1.47,1.16-1.96,2.06s-.73,2.04-.73,3.42v1.25c0,1.18.22,2.2.67,3.07.44.88,1.07,1.56,1.87,2.04.8.49,1.73.73,2.79.73s1.97-.22,2.64-.67c.67-.44,1.2-1.04,1.57-1.78h5.89c-.37,1.35-1.04,2.57-2,3.68-.96,1.1-2.12,1.96-3.48,2.58s-2.89.92-4.58.92Z"/>
    </g>
  </g>
</svg>